<svg id="logo" xmlns="http://www.w3.org/2000/svg" xmlns:xlink="http://www.w3.org/1999/xlink" width="240" height="32" viewBox="0 0 240 32">
  <defs>
    <clipPath id="clip-path">
      <rect id="사각형_83" data-name="사각형 83" width="240" height="32" fill="none"/>
    </clipPath>
  </defs>
  <g id="그룹_86" data-name="그룹 86" clip-path="url(#clip-path)">
    <path id="패스_171" data-name="패스 171" d="M184.159,7.114l-6.444,5.824,1.538,1.5,4.94-4.324c.06.055,4.936,4.324,4.936,4.324l1.537-1.5-6.473-5.853Z" transform="translate(-19.746 -0.787)" fill="#002a69"/>
    <path id="패스_172" data-name="패스 172" d="M222.7,26.905a2.78,2.78,0,0,1-2.915-2.613,2.934,2.934,0,0,1,5.831,0,2.78,2.78,0,0,1-2.916,2.613m0-7.112c-2.854,0-5.174,2.017-5.174,4.5s2.32,4.5,5.174,4.5,5.178-2.021,5.178-4.5-2.321-4.5-5.178-4.5" transform="translate(-24.17 -2.199)" fill="#002a69"/>
    <path id="패스_173" data-name="패스 173" d="M228.691,7.5h-12.3V9.388h4.318l-4.443,4.044,1.54,1.5s4.7-4.149,4.759-4.2c.066.055,4.76,4.2,4.76,4.2l1.538-1.5s-4.265-3.883-4.441-4.044h4.32V7.5Z" transform="translate(-24.029 -0.833)" fill="#002a69"/>
    <path id="패스_174" data-name="패스 174" d="M230.185,16.663H214.5v1.924h15.734V16.663Z" transform="translate(-23.833 -1.851)" fill="#002a69"/>
    <path id="패스_175" data-name="패스 175" d="M172.722,7.471H170.3v17.55h2.473V7.471Z" transform="translate(-18.922 -0.83)" fill="#002a69"/>
    <path id="패스_176" data-name="패스 176" d="M156.425,7.774h-.049V9.667h7.514V18.7h2.448V8.884c0-.778-.351-1.11-1.179-1.11Z" transform="translate(-17.375 -0.864)" fill="#002a69"/>
    <path id="패스_177" data-name="패스 177" d="M249.124,7.471H246.7v17.55h2.472V7.471Z" transform="translate(-27.411 -0.83)" fill="#002a69"/>
    <path id="패스_178" data-name="패스 178" d="M232.826,7.774h-.048V9.667h7.515V18.7h2.446V8.884c0-.778-.351-1.11-1.175-1.11Z" transform="translate(-25.864 -0.864)" fill="#002a69"/>
    <path id="패스_179" data-name="패스 179" d="M204.3,19.327h-2.353v3.349h-6.663V24.6h15.731V22.676h-6.662V19.327Z" transform="translate(-21.698 -2.147)" fill="#002a69"/>
    <path id="패스_180" data-name="패스 180" d="M206.986,15.126h-7.233V12.478h7.233Zm2.388-7.352h-2.388v2.775h-7.233V7.774h-2.437v8.22c.02.724.423,1.044,1.226,1.044l9.669.015c.784-.015,1.189-.335,1.213-1.059V7.774Z" transform="translate(-21.924 -0.864)" fill="#002a69"/>
    <path id="패스_181" data-name="패스 181" d="M267.984,16.663H252.3v1.889h15.733V16.663Z" transform="translate(-28.033 -1.851)" fill="#002a69"/>
    <path id="패스_182" data-name="패스 182" d="M254.278,7.5h-.051V9.388h9.58V14.2h2.449V8.473c-.039-.686-.39-.976-1.168-.976Z" transform="translate(-28.247 -0.833)" fill="#002a69"/>
    <path id="패스_183" data-name="패스 183" d="M263.876,26.379H256.6v-3.4h7.276Zm1.468-5.291H255.137c-.668,0-.953.266-.953.9v5.387c0,.631.285.9.953.9h10.208c.665,0,.948-.27.948-.9V21.988c0-.634-.284-.9-.948-.9" transform="translate(-28.243 -2.343)" fill="#002a69"/>
    <path id="패스_184" data-name="패스 184" d="M191.833,16.427H176.15v1.924h6.667V20.1h-4.741v1.916h9.454v.927h-8.5c-.668,0-.953.27-.953.9V26.9c0,.63.285.9.953.9H189.96V25.885H180.5V24.857h8.5c.67,0,.953-.268.953-.9V21c0-.631-.283-.9-.953-.9h-3.793V18.351h6.668V16.427Z" transform="translate(-19.572 -1.825)" fill="#002a69"/>
    <rect id="사각형_81" data-name="사각형 81" width="32.06" height="32" fill="#b1c91e"/>
    <rect id="사각형_82" data-name="사각형 82" width="5.156" height="19.519" transform="translate(55.412 6.563)" fill="#002a69"/>
    <path id="패스_185" data-name="패스 185" d="M84.639,16.712H98.083v5.954H84.639Zm18.616,6.66V16.02A3.41,3.41,0,0,0,99.723,12.5H84.639V7.4H79.488V23.023a3.819,3.819,0,0,0,1.061,2.564,5.015,5.015,0,0,0,3.732,1.3h15.44a3.4,3.4,0,0,0,3.534-3.51" transform="translate(-8.832 -0.822)" fill="#002a69"/>
    <path id="패스_186" data-name="패스 186" d="M134.048,22.665H120.6V11.613h13.444Zm.36-15.267H120.243a5.01,5.01,0,0,0-3.729,1.3,3.825,3.825,0,0,0-1.061,2.559V23c0,.04.068,3.882,4.779,3.882h14.181c4.712,0,4.782-3.842,4.782-3.878V11.246a3.807,3.807,0,0,0-1.062-2.552,4.989,4.989,0,0,0-3.725-1.3" transform="translate(-12.828 -0.822)" fill="#002a69"/>
    <path id="패스_187" data-name="패스 187" d="M22.274,8.377v1.9h4.181v16.4H31.61V5.344Z" transform="translate(-2.475 -0.594)" fill="#002a69"/>
    <path id="패스_188" data-name="패스 188" d="M42.347,16.875,52.423,7.467H45.809l-9.741,9.409,9.83,9.937h6.591Z" transform="translate(-4.007 -0.83)" fill="#002a69"/>
  </g>
</svg>
