<svg width="360" height="171" viewBox="0 0 360 171" fill="none" xmlns="http://www.w3.org/2000/svg">
<path d="M72.371 121.203C72.371 123.491 71.539 126.104 68.861 126.104C66.183 126.104 65.364 123.491 65.364 121.203C65.364 118.915 66.183 116.289 68.861 116.289C71.578 116.289 72.371 118.993 72.371 121.203ZM70.889 121.203C70.889 119.864 70.655 117.498 68.861 117.498C67.067 117.498 66.833 119.864 66.833 121.203C66.833 122.542 67.08 124.908 68.861 124.908C70.655 124.908 70.889 122.542 70.889 121.203ZM80.9731 116.276H82.2601L76.4881 126.156H75.1881L80.9731 116.276ZM75.4351 116.276C77.1121 116.276 77.6191 117.706 77.6191 119.149C77.6191 120.566 77.1121 122.048 75.4351 122.048C73.7711 122.048 73.2381 120.566 73.2381 119.149C73.2381 117.706 73.7711 116.276 75.4351 116.276ZM75.4351 121.034C76.3711 121.034 76.4751 119.851 76.4751 119.162C76.4751 118.473 76.3711 117.29 75.4351 117.29C74.4861 117.29 74.3821 118.473 74.3821 119.162C74.3821 119.851 74.4991 121.034 75.4351 121.034ZM82.0131 120.358C83.6901 120.358 84.1971 121.801 84.1971 123.231C84.1971 124.687 83.7031 126.13 82.0131 126.13C80.3491 126.13 79.8161 124.687 79.8161 123.231C79.8161 121.801 80.3621 120.358 82.0131 120.358ZM82.0131 125.116C82.9491 125.116 83.0531 123.933 83.0531 123.244C83.0531 122.555 82.9491 121.372 82.0131 121.372C81.0641 121.372 80.9601 122.555 80.9601 123.244C80.9601 123.933 81.0771 125.116 82.0131 125.116Z" fill="#474747"/>
<path d="M134.054 5.552L133.261 4.59L135.861 2.367H137.031V10.752H138.838V12H133.599V10.752H135.601V4.889C135.601 4.681 135.601 4.46 135.614 4.239L134.054 5.552ZM147.115 7.203C147.115 9.491 146.283 12.104 143.605 12.104C140.927 12.104 140.108 9.491 140.108 7.203C140.108 4.915 140.927 2.289 143.605 2.289C146.322 2.289 147.115 4.993 147.115 7.203ZM145.633 7.203C145.633 5.864 145.399 3.498 143.605 3.498C141.811 3.498 141.577 5.864 141.577 7.203C141.577 8.542 141.824 10.908 143.605 10.908C145.399 10.908 145.633 8.542 145.633 7.203ZM155.717 2.276H157.004L151.232 12.156H149.932L155.717 2.276ZM150.179 2.276C151.856 2.276 152.363 3.706 152.363 5.149C152.363 6.566 151.856 8.048 150.179 8.048C148.515 8.048 147.982 6.566 147.982 5.149C147.982 3.706 148.515 2.276 150.179 2.276ZM150.179 7.034C151.115 7.034 151.219 5.851 151.219 5.162C151.219 4.473 151.115 3.29 150.179 3.29C149.23 3.29 149.126 4.473 149.126 5.162C149.126 5.851 149.243 7.034 150.179 7.034ZM156.757 6.358C158.434 6.358 158.941 7.801 158.941 9.231C158.941 10.687 158.447 12.13 156.757 12.13C155.093 12.13 154.56 10.687 154.56 9.231C154.56 7.801 155.106 6.358 156.757 6.358ZM156.757 11.116C157.693 11.116 157.797 9.933 157.797 9.244C157.797 8.555 157.693 7.372 156.757 7.372C155.808 7.372 155.704 8.555 155.704 9.244C155.704 9.933 155.821 11.116 156.757 11.116Z" fill="#FF0A0A"/>
<path d="M177.482 84.985C178.028 85.505 178.808 85.882 179.575 85.882C180.836 85.882 181.577 84.972 181.577 83.789C181.577 82.606 180.823 81.982 179.627 81.982C179.12 81.982 178.626 82.086 178.145 82.229L177.261 81.982L178.041 77.393H182.695V78.706H179.042L178.652 80.942C179.068 80.851 179.51 80.799 179.926 80.799C181.681 80.799 183.007 81.813 183.007 83.711C183.007 85.739 181.538 87.104 179.484 87.104C178.743 87.104 177.885 86.883 177.274 86.428C177.066 86.298 176.897 86.168 176.741 86.025L177.482 84.985ZM191.973 77.276H193.26L187.488 87.156H186.188L191.973 77.276ZM186.435 77.276C188.112 77.276 188.619 78.706 188.619 80.149C188.619 81.566 188.112 83.048 186.435 83.048C184.771 83.048 184.238 81.566 184.238 80.149C184.238 78.706 184.771 77.276 186.435 77.276ZM186.435 82.034C187.371 82.034 187.475 80.851 187.475 80.162C187.475 79.473 187.371 78.29 186.435 78.29C185.486 78.29 185.382 79.473 185.382 80.162C185.382 80.851 185.499 82.034 186.435 82.034ZM193.013 81.358C194.69 81.358 195.197 82.801 195.197 84.231C195.197 85.687 194.703 87.13 193.013 87.13C191.349 87.13 190.816 85.687 190.816 84.231C190.816 82.801 191.362 81.358 193.013 81.358ZM193.013 86.116C193.949 86.116 194.053 84.933 194.053 84.244C194.053 83.555 193.949 82.372 193.013 82.372C192.064 82.372 191.96 83.555 191.96 84.244C191.96 84.933 192.077 86.116 193.013 86.116Z" fill="#FF0A0A"/>
<path d="M205.215 15.407L200.99 24H199.43L203.304 16.395C203.421 16.148 203.577 15.914 203.759 15.706H198.624V14.393H205.215V15.407ZM213.973 14.276H215.26L209.488 24.156H208.188L213.973 14.276ZM208.435 14.276C210.112 14.276 210.619 15.706 210.619 17.149C210.619 18.566 210.112 20.048 208.435 20.048C206.771 20.048 206.238 18.566 206.238 17.149C206.238 15.706 206.771 14.276 208.435 14.276ZM208.435 19.034C209.371 19.034 209.475 17.851 209.475 17.162C209.475 16.473 209.371 15.29 208.435 15.29C207.486 15.29 207.382 16.473 207.382 17.162C207.382 17.851 207.499 19.034 208.435 19.034ZM215.013 18.358C216.69 18.358 217.197 19.801 217.197 21.231C217.197 22.687 216.703 24.13 215.013 24.13C213.349 24.13 212.816 22.687 212.816 21.231C212.816 19.801 213.362 18.358 215.013 18.358ZM215.013 23.116C215.949 23.116 216.053 21.933 216.053 21.244C216.053 20.555 215.949 19.372 215.013 19.372C214.064 19.372 213.96 20.555 213.96 21.244C213.96 21.933 214.077 23.116 215.013 23.116Z" fill="#FF0A0A"/>
<path d="M231.859 111.062C231.976 112.05 232.899 112.895 233.887 112.895C234.862 112.895 235.72 112.245 235.72 111.244C235.72 109.775 234.563 109.606 233.393 109.606V108.566C234.472 108.566 235.551 108.28 235.551 107.006C235.551 106.083 234.966 105.511 234.017 105.511C233.029 105.511 232.223 106.265 232.301 107.292L230.884 107.045C231.131 105.342 232.314 104.289 234.095 104.289C235.551 104.289 236.942 105.134 236.942 106.759C236.942 107.864 236.461 108.592 235.356 108.943C236.5 109.268 237.15 109.996 237.15 111.205C237.15 113.038 235.681 114.117 233.9 114.117C232.145 114.117 231.118 113.324 230.598 111.582L231.859 111.062ZM245.973 104.276H247.26L241.488 114.156H240.188L245.973 104.276ZM240.435 104.276C242.112 104.276 242.619 105.706 242.619 107.149C242.619 108.566 242.112 110.048 240.435 110.048C238.771 110.048 238.238 108.566 238.238 107.149C238.238 105.706 238.771 104.276 240.435 104.276ZM240.435 109.034C241.371 109.034 241.475 107.851 241.475 107.162C241.475 106.473 241.371 105.29 240.435 105.29C239.486 105.29 239.382 106.473 239.382 107.162C239.382 107.851 239.499 109.034 240.435 109.034ZM247.013 108.358C248.69 108.358 249.197 109.801 249.197 111.231C249.197 112.687 248.703 114.13 247.013 114.13C245.349 114.13 244.816 112.687 244.816 111.231C244.816 109.801 245.362 108.358 247.013 108.358ZM247.013 113.116C247.949 113.116 248.053 111.933 248.053 111.244C248.053 110.555 247.949 109.372 247.013 109.372C246.064 109.372 245.96 110.555 245.96 111.244C245.96 111.933 246.077 113.116 247.013 113.116Z" fill="#FF0A0A"/>
<path d="M286.514 76.569H285.188V79H283.94V76.569H279.234V75.529L283.849 69.38H285.188V75.451H286.514V76.569ZM283.94 75.451V71.941C283.94 71.655 283.966 71.356 284.005 71.018L280.781 75.451H283.94ZM294.973 69.276H296.26L290.488 79.156H289.188L294.973 69.276ZM289.435 69.276C291.112 69.276 291.619 70.706 291.619 72.149C291.619 73.566 291.112 75.048 289.435 75.048C287.771 75.048 287.238 73.566 287.238 72.149C287.238 70.706 287.771 69.276 289.435 69.276ZM289.435 74.034C290.371 74.034 290.475 72.851 290.475 72.162C290.475 71.473 290.371 70.29 289.435 70.29C288.486 70.29 288.382 71.473 288.382 72.162C288.382 72.851 288.499 74.034 289.435 74.034ZM296.013 73.358C297.69 73.358 298.197 74.801 298.197 76.231C298.197 77.687 297.703 79.13 296.013 79.13C294.349 79.13 293.816 77.687 293.816 76.231C293.816 74.801 294.362 73.358 296.013 73.358ZM296.013 78.116C296.949 78.116 297.053 76.933 297.053 76.244C297.053 75.555 296.949 74.372 296.013 74.372C295.064 74.372 294.96 75.555 294.96 76.244C294.96 76.933 295.077 78.116 296.013 78.116Z" fill="#FF0A0A"/>
<path d="M312.65 161.657H317.07V162.762H312.65V161.657ZM319.208 164.985C319.754 165.505 320.534 165.882 321.301 165.882C322.562 165.882 323.303 164.972 323.303 163.789C323.303 162.606 322.549 161.982 321.353 161.982C320.846 161.982 320.352 162.086 319.871 162.229L318.987 161.982L319.767 157.393H324.421V158.706H320.768L320.378 160.942C320.794 160.851 321.236 160.799 321.652 160.799C323.407 160.799 324.733 161.813 324.733 163.711C324.733 165.739 323.264 167.104 321.21 167.104C320.469 167.104 319.611 166.883 319 166.428C318.792 166.298 318.623 166.168 318.467 166.025L319.208 164.985ZM333.699 157.276H334.986L329.214 167.156H327.914L333.699 157.276ZM328.161 157.276C329.838 157.276 330.345 158.706 330.345 160.149C330.345 161.566 329.838 163.048 328.161 163.048C326.497 163.048 325.964 161.566 325.964 160.149C325.964 158.706 326.497 157.276 328.161 157.276ZM328.161 162.034C329.097 162.034 329.201 160.851 329.201 160.162C329.201 159.473 329.097 158.29 328.161 158.29C327.212 158.29 327.108 159.473 327.108 160.162C327.108 160.851 327.225 162.034 328.161 162.034ZM334.739 161.358C336.416 161.358 336.923 162.801 336.923 164.231C336.923 165.687 336.429 167.13 334.739 167.13C333.075 167.13 332.542 165.687 332.542 164.231C332.542 162.801 333.088 161.358 334.739 161.358ZM334.739 166.116C335.675 166.116 335.779 164.933 335.779 164.244C335.779 163.555 335.675 162.372 334.739 162.372C333.79 162.372 333.686 163.555 333.686 164.244C333.686 164.933 333.803 166.116 334.739 166.116Z" fill="#FF0A0A"/>
<line x1="57" y1="27.5" x2="360" y2="27.5" stroke="#C1C1C1"/>
<line x1="57" y1="63.5" x2="360" y2="63.5" stroke="#C1C1C1"/>
<line x1="57" y1="100.5" x2="360" y2="100.5" stroke="black" stroke-opacity="0.7"/>
<line x1="57" y1="141.5" x2="360" y2="141.5" stroke="#C1C1C1"/>
<line x1="77.2867" y1="99.5668" x2="148.287" y2="27.2992" stroke="#121213" stroke-width="2"/>
<line x1="187.312" y1="63.274" x2="206.312" y2="45.274" stroke="#121213" stroke-width="2"/>
<line x1="206.737" y1="47.324" x2="238.249" y2="81.6745" stroke="#121213" stroke-width="2"/>
<line x1="147.66" y1="27.2486" x2="188.66" y2="63.2486" stroke="#121213" stroke-width="2"/>
<line x1="242.731" y1="79.736" x2="266.731" y2="73.0368" stroke="#121213" stroke-width="2"/>
<path d="M267 73.7926L325 142" stroke="#121213" stroke-width="2"/>
<path d="M9.468 34H2.34V32.668H5.274V23.164C5.274 23.002 5.274 22.84 5.292 22.714L2.898 24.856L2.016 23.794L5.562 20.734H6.876V32.668H9.468V34ZM20.9647 27.43C20.9647 32.11 18.8407 34.252 16.1227 34.252C13.3867 34.252 11.2807 32.11 11.2807 27.43C11.2807 22.732 13.3867 20.59 16.1227 20.59C18.8407 20.59 20.9647 22.732 20.9647 27.43ZM19.3087 27.43C19.3087 23.308 17.7967 21.94 16.1227 21.94C14.4487 21.94 12.9547 23.308 12.9547 27.43C12.9547 31.534 14.4487 32.92 16.1227 32.92C17.7967 32.92 19.3087 31.534 19.3087 27.43ZM25.1353 28.546C23.3173 28.546 22.1293 27.196 22.1293 24.514C22.1293 21.832 23.3173 20.536 25.1353 20.536C27.0073 20.536 28.1773 21.832 28.1773 24.514C28.1773 27.196 27.0073 28.546 25.1353 28.546ZM34.0813 20.536L26.8093 34.216H25.3693L32.6593 20.536H34.0813ZM25.1353 27.43C26.1433 27.43 26.8273 26.602 26.8273 24.514C26.8273 22.444 26.1433 21.652 25.1353 21.652C24.1273 21.652 23.4613 22.48 23.4613 24.514C23.4613 26.584 24.1453 27.43 25.1353 27.43ZM34.2793 34.18C32.4613 34.18 31.2373 32.848 31.2373 30.166C31.2373 27.484 32.4613 26.188 34.2793 26.188C36.0973 26.188 37.3033 27.484 37.3033 30.166C37.3033 32.848 36.0973 34.18 34.2793 34.18ZM34.2793 33.064C35.2873 33.064 35.9533 32.254 35.9533 30.166C35.9533 28.096 35.2873 27.286 34.2793 27.286C33.2713 27.286 32.5873 28.096 32.5873 30.166C32.5873 32.236 33.2713 33.064 34.2793 33.064Z" fill="#A7A7A7"/>
<path d="M9.438 61.72C10.05 61.558 10.68 61.486 11.328 61.486C14.118 61.486 15.612 63.214 15.612 65.518C15.612 68.326 13.506 70.162 10.824 70.162C9.24 70.162 7.908 69.514 7.098 68.74L7.98 67.534C8.772 68.2 9.816 68.686 10.896 68.686C12.714 68.686 14.028 67.552 14.028 65.608C14.028 63.88 12.912 62.872 11.022 62.872C10.32 62.872 9.636 63.034 8.862 63.304L7.8 62.998L8.88 56.752H15.198V58.264H10.032L9.438 61.72ZM20.4127 64.546C18.5947 64.546 17.4067 63.196 17.4067 60.514C17.4067 57.832 18.5947 56.536 20.4127 56.536C22.2847 56.536 23.4547 57.832 23.4547 60.514C23.4547 63.196 22.2847 64.546 20.4127 64.546ZM29.3587 56.536L22.0867 70.216H20.6467L27.9367 56.536H29.3587ZM20.4127 63.43C21.4207 63.43 22.1047 62.602 22.1047 60.514C22.1047 58.444 21.4207 57.652 20.4127 57.652C19.4047 57.652 18.7387 58.48 18.7387 60.514C18.7387 62.584 19.4227 63.43 20.4127 63.43ZM29.5567 70.18C27.7387 70.18 26.5147 68.848 26.5147 66.166C26.5147 63.484 27.7387 62.188 29.5567 62.188C31.3747 62.188 32.5807 63.484 32.5807 66.166C32.5807 68.848 31.3747 70.18 29.5567 70.18ZM29.5567 69.064C30.5647 69.064 31.2307 68.254 31.2307 66.166C31.2307 64.096 30.5647 63.286 29.5567 63.286C28.5487 63.286 27.8647 64.096 27.8647 66.166C27.8647 68.236 28.5487 69.064 29.5567 69.064Z" fill="#A7A7A7"/>
<path d="M16.242 99.43C16.242 104.11 14.118 106.252 11.4 106.252C8.664 106.252 6.558 104.11 6.558 99.43C6.558 94.732 8.664 92.59 11.4 92.59C14.118 92.59 16.242 94.732 16.242 99.43ZM14.586 99.43C14.586 95.308 13.074 93.94 11.4 93.94C9.726 93.94 8.232 95.308 8.232 99.43C8.232 103.534 9.726 104.92 11.4 104.92C13.074 104.92 14.586 103.534 14.586 99.43ZM20.4127 100.546C18.5947 100.546 17.4067 99.196 17.4067 96.514C17.4067 93.832 18.5947 92.536 20.4127 92.536C22.2847 92.536 23.4547 93.832 23.4547 96.514C23.4547 99.196 22.2847 100.546 20.4127 100.546ZM29.3587 92.536L22.0867 106.216H20.6467L27.9367 92.536H29.3587ZM20.4127 99.43C21.4207 99.43 22.1047 98.602 22.1047 96.514C22.1047 94.444 21.4207 93.652 20.4127 93.652C19.4047 93.652 18.7387 94.48 18.7387 96.514C18.7387 98.584 19.4227 99.43 20.4127 99.43ZM29.5567 106.18C27.7387 106.18 26.5147 104.848 26.5147 102.166C26.5147 99.484 27.7387 98.188 29.5567 98.188C31.3747 98.188 32.5807 99.484 32.5807 102.166C32.5807 104.848 31.3747 106.18 29.5567 106.18ZM29.5567 105.064C30.5647 105.064 31.2307 104.254 31.2307 102.166C31.2307 100.096 30.5647 99.286 29.5567 99.286C28.5487 99.286 27.8647 100.096 27.8647 102.166C27.8647 104.236 28.5487 105.064 29.5567 105.064Z" fill="#A7A7A7"/>
<path d="M8.84 140.746V142.006H2.9V140.746H8.84ZM13.1724 139.72C13.7844 139.558 14.4144 139.486 15.0624 139.486C17.8524 139.486 19.3464 141.214 19.3464 143.518C19.3464 146.326 17.2404 148.162 14.5584 148.162C12.9744 148.162 11.6424 147.514 10.8324 146.74L11.7144 145.534C12.5064 146.2 13.5504 146.686 14.6304 146.686C16.4484 146.686 17.7624 145.552 17.7624 143.608C17.7624 141.88 16.6464 140.872 14.7564 140.872C14.0544 140.872 13.3704 141.034 12.5964 141.304L11.5344 140.998L12.6144 134.752H18.9324V136.264H13.7664L13.1724 139.72ZM24.147 142.546C22.329 142.546 21.141 141.196 21.141 138.514C21.141 135.832 22.329 134.536 24.147 134.536C26.019 134.536 27.189 135.832 27.189 138.514C27.189 141.196 26.019 142.546 24.147 142.546ZM33.093 134.536L25.821 148.216H24.381L31.671 134.536H33.093ZM24.147 141.43C25.155 141.43 25.839 140.602 25.839 138.514C25.839 136.444 25.155 135.652 24.147 135.652C23.139 135.652 22.473 136.48 22.473 138.514C22.473 140.584 23.157 141.43 24.147 141.43ZM33.291 148.18C31.473 148.18 30.249 146.848 30.249 144.166C30.249 141.484 31.473 140.188 33.291 140.188C35.109 140.188 36.315 141.484 36.315 144.166C36.315 146.848 35.109 148.18 33.291 148.18ZM33.291 147.064C34.299 147.064 34.965 146.254 34.965 144.166C34.965 142.096 34.299 141.286 33.291 141.286C32.283 141.286 31.599 142.096 31.599 144.166C31.599 146.236 32.283 147.064 33.291 147.064Z" fill="#A7A7A7"/>
<circle cx="78" cy="99" r="7" fill="#1C1C1C"/>
<circle cx="324" cy="142" r="7" fill="#1C1C1C"/>
<circle cx="147" cy="27" r="7" fill="#1C1C1C"/>
<circle cx="186" cy="63" r="7" fill="#1C1C1C"/>
<circle cx="207" cy="46" r="7" fill="#1C1C1C"/>
<circle cx="240" cy="81" r="7" fill="#1C1C1C"/>
<circle cx="267" cy="74" r="7" fill="#1C1C1C"/>
</svg>
