<svg width="30" height="30" viewBox="0 0 30 30" fill="none" xmlns="http://www.w3.org/2000/svg">
<g clip-path="url(#clip0_103_23)">
<path d="M15 2.70295C19.0054 2.70295 19.4795 2.71807 21.0614 2.79039C22.5237 2.85746 23.3179 3.10139 23.8465 3.30718C24.5468 3.57938 25.0465 3.90418 25.5711 4.42952C26.0958 4.9542 26.4213 5.45389 26.6935 6.15412C26.8986 6.68274 27.1432 7.47699 27.2103 8.93925C27.2826 10.5212 27.2977 10.9952 27.2977 15.0007C27.2977 19.0061 27.2826 19.4801 27.2103 21.0621C27.1432 22.5243 26.8993 23.3186 26.6935 23.8472C26.4213 24.5474 26.0965 25.0471 25.5711 25.5718C25.0465 26.0965 24.5468 26.4219 23.8465 26.6941C23.3179 26.8993 22.5237 27.1439 21.0614 27.2103C19.4801 27.2826 19.0054 27.2977 15 27.2977C10.9946 27.2977 10.5205 27.2826 8.93859 27.2103C7.47633 27.1439 6.68208 26.8993 6.15346 26.6941C5.45323 26.4219 4.95354 26.0971 4.42886 25.5718C3.90418 25.0471 3.57872 24.5474 3.30652 23.8472C3.10139 23.3186 2.8568 22.5243 2.78973 21.0621C2.71741 19.4801 2.70229 19.0061 2.70229 15.0007C2.70229 10.9952 2.71741 10.5212 2.78973 8.93925C2.8568 7.47699 3.10073 6.68274 3.30652 6.15412C3.57872 5.45389 3.90352 4.9542 4.42886 4.42952C4.95354 3.90484 5.45323 3.57938 6.15346 3.30718C6.68208 3.10204 7.47633 2.85746 8.93859 2.79039C10.5205 2.71807 10.9946 2.70295 15 2.70295ZM15 0C10.9262 0 10.4153 0.0170948 8.81564 0.0900763C7.21925 0.163058 6.12847 0.416849 5.17445 0.787674C4.18822 1.17099 3.35123 1.68383 2.51753 2.51753C1.68383 3.35123 1.17099 4.18822 0.787674 5.17445C0.416849 6.12847 0.163058 7.21925 0.0907338 8.81564C0.0170948 10.4153 0 10.9262 0 15C0 19.0738 0.0170948 19.5847 0.0900763 21.1844C0.163058 22.7808 0.416192 23.8715 0.787017 24.8255C1.17033 25.8118 1.68318 26.6488 2.51688 27.4825C3.35057 28.3162 4.18756 28.829 5.1738 29.2123C6.12782 29.5831 7.21794 29.8369 8.81498 29.9093C10.4147 29.9822 10.9255 29.9993 14.9993 29.9993C19.0732 29.9993 19.584 29.9822 21.1837 29.9093C22.7801 29.8363 23.8709 29.5825 24.8249 29.2123C25.8111 28.829 26.6481 28.3162 27.4818 27.4825C28.3155 26.6488 28.8284 25.8118 29.2117 24.8255C29.5825 23.8715 29.8363 22.7808 29.9086 21.1844C29.9816 19.5847 29.9987 19.0738 29.9987 15C29.9987 10.9262 29.9816 10.4153 29.9086 8.81564C29.8356 7.21925 29.5825 6.12847 29.2117 5.17445C28.8284 4.18822 28.3155 3.35123 27.4818 2.51753C26.6481 1.68383 25.8111 1.17099 24.8249 0.787674C23.8709 0.416849 22.7807 0.163058 21.1837 0.0907338C19.5847 0.0170948 19.0738 0 15 0Z" fill="#AAAAAA"/>
<path d="M15.0004 7.29736C10.7464 7.29736 7.29785 10.7459 7.29785 14.9999C7.29785 19.2538 10.7464 22.7024 15.0004 22.7024C19.2543 22.7024 22.7029 19.2538 22.7029 14.9999C22.7029 10.7459 19.2543 7.29736 15.0004 7.29736ZM15.0004 20.0001C12.2389 20.0001 10.0001 17.7613 10.0001 14.9999C10.0001 12.2384 12.2389 9.99965 15.0004 9.99965C17.7618 9.99965 20.0006 12.2384 20.0006 14.9999C20.0006 17.7613 17.7618 20.0001 15.0004 20.0001Z" fill="#AAAAAA"/>
<path d="M24.8075 6.99308C24.8075 7.98721 24.0014 8.79329 23.0072 8.79329C22.0131 8.79329 21.207 7.98721 21.207 6.99308C21.207 5.99895 22.0131 5.19287 23.0072 5.19287C24.0014 5.19287 24.8075 5.99895 24.8075 6.99308Z" fill="#AAAAAA"/>
</g>
<defs>
<clipPath id="clip0_103_23">
<rect width="30" height="30" fill="white"/>
</clipPath>
</defs>
</svg>
