<svg width="26" height="15" viewBox="0 0 26 15" fill="none" xmlns="http://www.w3.org/2000/svg">
<path d="M2.438 5.72C3.05 5.558 3.68 5.486 4.328 5.486C7.118 5.486 8.612 7.214 8.612 9.518C8.612 12.326 6.506 14.162 3.824 14.162C2.24 14.162 0.908 13.514 0.0980001 12.74L0.98 11.534C1.772 12.2 2.816 12.686 3.896 12.686C5.714 12.686 7.028 11.552 7.028 9.608C7.028 7.88 5.912 6.872 4.022 6.872C3.32 6.872 2.636 7.034 1.862 7.304L0.8 6.998L1.88 0.751999H8.198V2.264H3.032L2.438 5.72ZM13.4127 8.546C11.5947 8.546 10.4067 7.196 10.4067 4.514C10.4067 1.832 11.5947 0.536 13.4127 0.536C15.2847 0.536 16.4547 1.832 16.4547 4.514C16.4547 7.196 15.2847 8.546 13.4127 8.546ZM22.3587 0.536L15.0867 14.216H13.6467L20.9367 0.536H22.3587ZM13.4127 7.43C14.4207 7.43 15.1047 6.602 15.1047 4.514C15.1047 2.444 14.4207 1.652 13.4127 1.652C12.4047 1.652 11.7387 2.48 11.7387 4.514C11.7387 6.584 12.4227 7.43 13.4127 7.43ZM22.5567 14.18C20.7387 14.18 19.5147 12.848 19.5147 10.166C19.5147 7.484 20.7387 6.188 22.5567 6.188C24.3747 6.188 25.5807 7.484 25.5807 10.166C25.5807 12.848 24.3747 14.18 22.5567 14.18ZM22.5567 13.064C23.5647 13.064 24.2307 12.254 24.2307 10.166C24.2307 8.096 23.5647 7.286 22.5567 7.286C21.5487 7.286 20.8647 8.096 20.8647 10.166C20.8647 12.236 21.5487 13.064 22.5567 13.064Z" fill="#A7A7A7"/>
</svg>
