<svg width="27" height="15" viewBox="0 0 27 15" fill="none" xmlns="http://www.w3.org/2000/svg">
<path d="M10.242 7.43C10.242 12.11 8.118 14.252 5.4 14.252C2.664 14.252 0.558 12.11 0.558 7.43C0.558 2.732 2.664 0.589999 5.4 0.589999C8.118 0.589999 10.242 2.732 10.242 7.43ZM8.586 7.43C8.586 3.308 7.074 1.94 5.4 1.94C3.726 1.94 2.232 3.308 2.232 7.43C2.232 11.534 3.726 12.92 5.4 12.92C7.074 12.92 8.586 11.534 8.586 7.43ZM14.4127 8.546C12.5947 8.546 11.4067 7.196 11.4067 4.514C11.4067 1.832 12.5947 0.536 14.4127 0.536C16.2847 0.536 17.4547 1.832 17.4547 4.514C17.4547 7.196 16.2847 8.546 14.4127 8.546ZM23.3587 0.536L16.0867 14.216H14.6467L21.9367 0.536H23.3587ZM14.4127 7.43C15.4207 7.43 16.1047 6.602 16.1047 4.514C16.1047 2.444 15.4207 1.652 14.4127 1.652C13.4047 1.652 12.7387 2.48 12.7387 4.514C12.7387 6.584 13.4227 7.43 14.4127 7.43ZM23.5567 14.18C21.7387 14.18 20.5147 12.848 20.5147 10.166C20.5147 7.484 21.7387 6.188 23.5567 6.188C25.3747 6.188 26.5807 7.484 26.5807 10.166C26.5807 12.848 25.3747 14.18 23.5567 14.18ZM23.5567 13.064C24.5647 13.064 25.2307 12.254 25.2307 10.166C25.2307 8.096 24.5647 7.286 23.5567 7.286C22.5487 7.286 21.8647 8.096 21.8647 10.166C21.8647 12.236 22.5487 13.064 23.5567 13.064Z" fill="#A7A7A7"/>
</svg>
