<svg width="36" height="15" viewBox="0 0 36 15" fill="none" xmlns="http://www.w3.org/2000/svg">
<path d="M7.468 14H0.34V12.668H3.274V3.164C3.274 3.002 3.274 2.84 3.292 2.714L0.898 4.856L0.0160001 3.794L3.562 0.733999H4.876V12.668H7.468V14ZM18.9647 7.43C18.9647 12.11 16.8407 14.252 14.1227 14.252C11.3867 14.252 9.28066 12.11 9.28066 7.43C9.28066 2.732 11.3867 0.589999 14.1227 0.589999C16.8407 0.589999 18.9647 2.732 18.9647 7.43ZM17.3087 7.43C17.3087 3.308 15.7967 1.94 14.1227 1.94C12.4487 1.94 10.9547 3.308 10.9547 7.43C10.9547 11.534 12.4487 12.92 14.1227 12.92C15.7967 12.92 17.3087 11.534 17.3087 7.43ZM23.1353 8.546C21.3173 8.546 20.1293 7.196 20.1293 4.514C20.1293 1.832 21.3173 0.536 23.1353 0.536C25.0073 0.536 26.1773 1.832 26.1773 4.514C26.1773 7.196 25.0073 8.546 23.1353 8.546ZM32.0813 0.536L24.8093 14.216H23.3693L30.6593 0.536H32.0813ZM23.1353 7.43C24.1433 7.43 24.8273 6.602 24.8273 4.514C24.8273 2.444 24.1433 1.652 23.1353 1.652C22.1273 1.652 21.4613 2.48 21.4613 4.514C21.4613 6.584 22.1453 7.43 23.1353 7.43ZM32.2793 14.18C30.4613 14.18 29.2373 12.848 29.2373 10.166C29.2373 7.484 30.4613 6.188 32.2793 6.188C34.0973 6.188 35.3033 7.484 35.3033 10.166C35.3033 12.848 34.0973 14.18 32.2793 14.18ZM32.2793 13.064C33.2873 13.064 33.9533 12.254 33.9533 10.166C33.9533 8.096 33.2873 7.286 32.2793 7.286C31.2713 7.286 30.5873 8.096 30.5873 10.166C30.5873 12.236 31.2713 13.064 32.2793 13.064Z" fill="#A7A7A7"/>
</svg>
