<svg width="35" height="15" viewBox="0 0 35 15" fill="none" xmlns="http://www.w3.org/2000/svg">
<path d="M6.84 6.746V8.006H0.9V6.746H6.84ZM11.1724 5.72C11.7844 5.558 12.4144 5.486 13.0624 5.486C15.8524 5.486 17.3464 7.214 17.3464 9.518C17.3464 12.326 15.2404 14.162 12.5584 14.162C10.9744 14.162 9.64238 13.514 8.83238 12.74L9.71438 11.534C10.5064 12.2 11.5504 12.686 12.6304 12.686C14.4484 12.686 15.7624 11.552 15.7624 9.608C15.7624 7.88 14.6464 6.872 12.7564 6.872C12.0544 6.872 11.3704 7.034 10.5964 7.304L9.53438 6.998L10.6144 0.751999H16.9324V2.264H11.7664L11.1724 5.72ZM22.147 8.546C20.329 8.546 19.141 7.196 19.141 4.514C19.141 1.832 20.329 0.536 22.147 0.536C24.019 0.536 25.189 1.832 25.189 4.514C25.189 7.196 24.019 8.546 22.147 8.546ZM31.093 0.536L23.821 14.216H22.381L29.671 0.536H31.093ZM22.147 7.43C23.155 7.43 23.839 6.602 23.839 4.514C23.839 2.444 23.155 1.652 22.147 1.652C21.139 1.652 20.473 2.48 20.473 4.514C20.473 6.584 21.157 7.43 22.147 7.43ZM31.291 14.18C29.473 14.18 28.249 12.848 28.249 10.166C28.249 7.484 29.473 6.188 31.291 6.188C33.109 6.188 34.315 7.484 34.315 10.166C34.315 12.848 33.109 14.18 31.291 14.18ZM31.291 13.064C32.299 13.064 32.965 12.254 32.965 10.166C32.965 8.096 32.299 7.286 31.291 7.286C30.283 7.286 29.599 8.096 29.599 10.166C29.599 12.236 30.283 13.064 31.291 13.064Z" fill="#A7A7A7"/>
</svg>
