<svg width="112" height="34" viewBox="0 0 112 34" fill="none" xmlns="http://www.w3.org/2000/svg">
<path d="M12.8701 17.7179C12.8701 17.5264 12.8921 17.3521 12.9361 17.1933C12.9801 17.0345 13.0647 16.8982 13.1882 16.7825C13.3134 16.6686 13.4876 16.5789 13.7127 16.515C13.9377 16.4511 14.2236 16.4201 14.5738 16.4201H15.0424V14.0332C15.0424 13.3963 15.1947 12.9614 15.5009 12.725C15.8072 12.4902 16.1591 12.3711 16.5583 12.3711C16.758 12.3711 16.9492 12.397 17.1302 12.4471C17.3112 12.4971 17.4702 12.5869 17.6073 12.7146C17.7443 12.8423 17.856 13.0132 17.944 13.2306C18.0319 13.4464 18.0742 13.7139 18.0742 14.0332V16.4201H21.9502C22.2988 16.4201 22.5864 16.4511 22.8114 16.515C23.0364 16.5789 23.2107 16.6686 23.3359 16.7825C23.4611 16.8964 23.544 17.0345 23.5879 17.1933C23.6319 17.3521 23.6539 17.5281 23.6539 17.7179C23.6539 17.8698 23.6319 18.0234 23.5879 18.177C23.544 18.3306 23.4594 18.467 23.3359 18.5878C23.2107 18.7086 23.0364 18.8035 22.8114 18.8743C22.5864 18.9451 22.2988 18.9796 21.9502 18.9796H14.5738C14.2236 18.9796 13.9377 18.9451 13.7127 18.8743C13.4876 18.8035 13.3134 18.7086 13.1882 18.5878C13.063 18.467 12.9784 18.3306 12.9361 18.177C12.8921 18.0252 12.8701 17.8716 12.8701 17.7179ZM21.2024 8.60698C21.5391 8.60698 21.8014 8.6415 21.9892 8.71226C22.1769 8.78302 22.3191 8.87795 22.4189 8.99876C22.5187 9.11957 22.5813 9.26973 22.6067 9.44749C22.632 9.62526 22.6439 9.82891 22.6439 10.0585V11.377C22.6439 11.5289 22.6371 11.7239 22.6253 11.9604C22.6134 12.1968 22.5965 12.4436 22.5779 12.706C22.5593 12.9666 22.5339 13.2306 22.5035 13.4982C22.4713 13.7657 22.4375 14.0142 22.4003 14.2437C22.3258 14.651 22.1566 14.9634 21.8944 15.1792C21.6322 15.3949 21.2329 15.4726 20.6966 15.4087C20.1975 15.3449 19.854 15.1947 19.6662 14.96C19.4785 14.7253 19.3972 14.4094 19.4226 14.0142C19.4345 13.7726 19.4565 13.493 19.4886 13.1737C19.5191 12.8561 19.536 12.5696 19.536 12.3142V11.2441H14.8546C14.5044 11.2441 14.2185 11.2096 13.9935 11.1389C13.7685 11.0698 13.5942 10.9732 13.469 10.8524C13.3438 10.7316 13.2592 10.5918 13.2169 10.433C13.173 10.2742 13.151 10.0982 13.151 9.9083C13.151 9.7547 13.173 9.59937 13.2169 9.44059C13.2609 9.28181 13.3455 9.14201 13.469 9.0212C13.5942 8.90039 13.7685 8.80201 13.9935 8.72607C14.2185 8.65013 14.5044 8.61216 14.8546 8.61216H21.2024V8.60698ZM17.2892 22.4158H26.6688C27.0173 22.4158 27.3049 22.4503 27.5299 22.5211C27.755 22.5919 27.9292 22.6868 28.0544 22.8076C28.1796 22.9284 28.2625 23.0648 28.3065 23.2184C28.3505 23.3702 28.3725 23.5238 28.3725 23.6774C28.3725 23.869 28.3505 24.0433 28.3065 24.2021C28.2625 24.3609 28.1779 24.4972 28.0544 24.6129C27.9292 24.7268 27.755 24.8165 27.5299 24.8804C27.3049 24.9442 27.0173 24.9753 26.6688 24.9753H15.7716C15.4214 24.9753 15.1473 24.9408 14.9477 24.87C14.7481 24.7993 14.5941 24.7043 14.4892 24.5835C14.3826 24.4627 14.3166 24.3229 14.293 24.1641C14.2676 24.0054 14.2557 23.8293 14.2557 23.6395V21.3475C14.2557 21.0299 14.2963 20.7641 14.3775 20.5553C14.4588 20.3448 14.5704 20.1808 14.7142 20.0583C14.858 19.9374 15.0204 19.8546 15.2015 19.8097C15.3825 19.7649 15.572 19.7424 15.7733 19.7424C15.9746 19.7424 16.1641 19.7649 16.3452 19.8097C16.5262 19.8546 16.6852 19.9374 16.8223 20.0583C16.9593 20.1791 17.0727 20.3448 17.1589 20.5553C17.2469 20.7659 17.2892 21.0299 17.2892 21.3475V22.4175V22.4158ZM24.554 10.0395C24.554 9.40262 24.7062 8.9677 25.0125 8.73125C25.3187 8.49653 25.6706 8.37744 26.0699 8.37744C26.2695 8.37744 26.4607 8.40333 26.6417 8.45338C26.8227 8.50516 26.9818 8.59318 27.1188 8.72089C27.2559 8.84861 27.3692 9.01947 27.4555 9.23693C27.5435 9.4544 27.5858 9.72018 27.5858 10.0395V13.2099H28.54C28.8885 13.2099 29.1761 13.2514 29.4011 13.3342C29.6261 13.417 29.8004 13.5223 29.9256 13.65C30.0508 13.7777 30.1337 13.921 30.1777 14.0798C30.2217 14.2386 30.2437 14.3956 30.2437 14.5475C30.2437 14.7391 30.2217 14.9168 30.1777 15.0825C30.1337 15.2482 30.0491 15.3915 29.9256 15.5123C29.8004 15.6331 29.6261 15.7315 29.4011 15.8074C29.1761 15.8833 28.8885 15.9213 28.54 15.9213H27.5858V18.7483C27.5858 19.0797 27.5418 19.3524 27.4555 19.5698C27.3675 19.7856 27.2559 19.9582 27.1188 20.0859C26.9818 20.2136 26.8227 20.3016 26.6417 20.3534C26.4607 20.4052 26.2695 20.4293 26.0699 20.4293C25.8702 20.4293 25.6791 20.4034 25.498 20.3534C25.317 20.3033 25.1546 20.2136 25.0108 20.0859C24.867 19.9582 24.7553 19.7873 24.6741 19.5698C24.5929 19.3541 24.5523 19.0797 24.5523 18.7483V10.0395H24.554Z" fill="#818181"/>
<path d="M30.7881 12.7905C30.7881 11.2631 31.1248 10.1586 31.7998 9.47683C32.4732 8.79511 33.5475 8.45511 35.0194 8.45511C36.4913 8.45511 37.5656 8.79511 38.239 9.47683C38.9123 10.1586 39.2507 11.2631 39.2507 12.7905C39.2507 13.5931 39.1661 14.2713 38.9986 14.8254C38.8294 15.3794 38.5739 15.8212 38.2305 16.1526C37.8871 16.4839 37.4472 16.7221 36.9109 16.8688C36.3746 17.0155 35.7435 17.088 35.0194 17.088C33.5593 17.088 32.4884 16.7515 31.8083 16.0749C31.1281 15.4001 30.7881 14.3059 30.7881 12.7888V12.7905ZM42.115 21.2716H32.7912C32.441 21.2716 32.1551 21.2336 31.9301 21.1576C31.7051 21.0817 31.5308 20.9833 31.4056 20.8608C31.2804 20.74 31.1958 20.6002 31.1535 20.4414C31.1095 20.2826 31.0875 20.1256 31.0875 19.9737C31.0875 19.7821 31.1095 19.6078 31.1535 19.449C31.1975 19.2902 31.2821 19.1504 31.4056 19.0296C31.5308 18.9088 31.7051 18.8139 31.9301 18.7431C32.1551 18.6741 32.441 18.6378 32.7912 18.6378H43.6326C43.9811 18.6378 44.2568 18.6724 44.4565 18.7431C44.6561 18.8139 44.8084 18.9088 44.915 19.0296C45.0216 19.1504 45.0859 19.2902 45.1112 19.449C45.1366 19.6078 45.1484 19.7838 45.1484 19.9737V23.3167C45.1484 23.6343 45.1045 23.9018 45.0182 24.1193C44.9302 24.335 44.8185 24.5076 44.6815 24.6353C44.5445 24.763 44.3854 24.851 44.2044 24.9028C44.0234 24.9529 43.8322 24.9788 43.6326 24.9788C43.2333 24.9788 42.8797 24.8614 42.5752 24.625C42.2689 24.3885 42.1167 23.9536 42.1167 23.3167V21.2733L42.115 21.2716ZM33.8402 12.7905C33.8402 13.4274 33.9112 13.883 34.055 14.1557C34.1988 14.4301 34.5203 14.5665 35.0194 14.5665C35.5185 14.5665 35.8399 14.4301 35.9837 14.1557C36.1275 13.8813 36.1986 13.4274 36.1986 12.7905C36.1986 12.1537 36.1259 11.6963 35.9837 11.415C35.8399 11.1354 35.5185 10.9956 35.0194 10.9956C34.5203 10.9956 34.1988 11.1354 34.055 11.415C33.9112 11.6946 33.8402 12.1537 33.8402 12.7905ZM41.7411 10.0395C41.7411 9.40262 41.8933 8.9677 42.1996 8.73125C42.5058 8.49653 42.8577 8.37744 43.257 8.37744C43.4566 8.37744 43.6461 8.40333 43.8288 8.45338C44.0098 8.50516 44.1689 8.59318 44.3059 8.72089C44.443 8.84861 44.5546 9.01947 44.6426 9.23693C44.7306 9.4544 44.7729 9.72018 44.7729 10.0395V11.5669H46.1213C46.4698 11.5669 46.7574 11.6083 46.9824 11.6911C47.2074 11.774 47.3817 11.8793 47.5069 12.007C47.6321 12.1347 47.715 12.2779 47.759 12.4367C47.803 12.5955 47.8249 12.7526 47.8249 12.9044C47.8249 13.096 47.803 13.2738 47.759 13.4395C47.715 13.6052 47.6304 13.7484 47.5069 13.8692C47.3817 13.99 47.2074 14.0884 46.9824 14.1661C46.7574 14.242 46.4698 14.28 46.1213 14.28H44.7729V16.0179C44.7729 16.3493 44.7289 16.622 44.6426 16.8395C44.5546 17.0552 44.443 17.2278 44.3059 17.3555C44.1689 17.4832 44.0098 17.5712 43.8288 17.623C43.6478 17.6748 43.4566 17.699 43.257 17.699C43.0573 17.699 42.8662 17.6731 42.6851 17.623C42.5041 17.573 42.3417 17.4832 42.1979 17.3555C42.0541 17.2278 41.9424 17.0569 41.8612 16.8395C41.78 16.6237 41.7394 16.3493 41.7394 16.0179V10.0395H41.7411Z" fill="#818181"/>
<path d="M48.5742 13.1722C48.5742 11.6448 48.9143 10.4763 49.5944 9.66691C50.2745 8.85919 51.3505 8.45361 52.8241 8.45361C54.2977 8.45361 55.3737 8.85747 56.0539 9.66691C56.734 10.4763 57.074 11.643 57.074 13.1722C57.074 14.7893 56.7306 15.9768 56.0437 16.7344C55.3568 17.4921 54.2842 17.8701 52.8241 17.8701C51.3641 17.8701 50.2745 17.4696 49.5944 16.6671C48.9143 15.8646 48.5742 14.6996 48.5742 13.1722ZM52.7311 22.3401H62.7671C63.1156 22.3401 63.4032 22.3781 63.6282 22.454C63.8533 22.53 64.0275 22.6283 64.1527 22.7491C64.2779 22.87 64.3608 23.0097 64.4048 23.1685C64.4488 23.3273 64.4708 23.4844 64.4708 23.6362C64.4708 23.8278 64.4488 24.0021 64.4048 24.1609C64.3608 24.3197 64.2762 24.4595 64.1527 24.5803C64.0275 24.7011 63.8533 24.796 63.6282 24.8668C63.4032 24.9358 63.1156 24.9721 62.7671 24.9721H51.2152C50.865 24.9721 50.5909 24.9376 50.3913 24.8668C50.1916 24.796 50.0394 24.7011 49.9328 24.5803C49.8262 24.4595 49.7602 24.3197 49.7365 24.1609C49.7111 24.0021 49.6993 23.8261 49.6993 23.6362V20.4088C49.6993 19.772 49.8516 19.3371 50.1578 19.1006C50.464 18.8659 50.8159 18.7468 51.2152 18.7468C51.4148 18.7468 51.6043 18.7727 51.787 18.8227C51.9681 18.8745 52.1271 18.9625 52.2641 19.0903C52.4012 19.218 52.5145 19.3888 52.6008 19.6063C52.6888 19.822 52.7311 20.0895 52.7311 20.4088V22.3384V22.3401ZM51.6263 13.1722C51.6263 13.4897 51.6415 13.7832 51.6737 14.0507C51.7041 14.3182 51.7633 14.5477 51.8513 14.7376C51.9393 14.9291 52.0594 15.0776 52.2168 15.1863C52.3724 15.295 52.5754 15.3485 52.8258 15.3485C53.0762 15.3485 53.2775 15.295 53.4349 15.1863C53.5905 15.0776 53.7123 14.9291 53.8003 14.7376C53.8883 14.546 53.9475 14.3182 53.978 14.0507C54.0084 13.7832 54.0253 13.4897 54.0253 13.1722C54.0253 12.8546 54.0101 12.5612 53.978 12.2937C53.9458 12.0262 53.8866 11.7967 53.8003 11.6068C53.7123 11.4152 53.5905 11.2668 53.4349 11.1581C53.2792 11.0493 53.0762 10.9958 52.8258 10.9958C52.5754 10.9958 52.3741 11.0493 52.2168 11.1581C52.0611 11.2668 51.9393 11.4152 51.8513 11.6068C51.7633 11.7984 51.7041 12.0279 51.6737 12.2937C51.6415 12.5612 51.6263 12.8546 51.6263 13.1722ZM60.8384 16.6481H59.5272C59.177 16.6481 58.8911 16.6171 58.6661 16.5532C58.4411 16.4893 58.2668 16.3996 58.1416 16.2857C58.0164 16.1718 57.9318 16.0337 57.8895 15.8749C57.8455 15.7161 57.8235 15.5401 57.8235 15.3503C57.8235 15.1967 57.8455 15.0448 57.8895 14.8912C57.9335 14.7376 58.0181 14.6012 58.1416 14.4804C58.2668 14.3596 58.4411 14.2647 58.6661 14.1939C58.8911 14.1232 59.177 14.0886 59.5272 14.0886H60.8384V12.5043H59.5272C59.177 12.5043 58.8911 12.4732 58.6661 12.4093C58.4411 12.3455 58.2668 12.2557 58.1416 12.1418C58.0164 12.0279 57.9318 11.8899 57.8895 11.7311C57.8455 11.5723 57.8235 11.3962 57.8235 11.2064C57.8235 11.0528 57.8455 10.9009 57.8895 10.7473C57.9335 10.5937 58.0181 10.4574 58.1416 10.3366C58.2668 10.2157 58.4411 10.1208 58.6661 10.0501C58.8911 9.97929 59.177 9.94478 59.5272 9.94478H60.8384C60.8502 9.63929 60.901 9.38731 60.989 9.19056C61.0769 8.99381 61.1886 8.83503 61.3256 8.71249C61.4627 8.59168 61.6217 8.50538 61.8027 8.45533C61.9838 8.40528 62.1682 8.37939 62.3543 8.37939C62.5539 8.37939 62.7434 8.40528 62.9261 8.45533C63.1072 8.50711 63.2662 8.59513 63.4032 8.72285C63.5403 8.85056 63.6536 9.02142 63.7399 9.23889C63.8279 9.45635 63.8702 9.72214 63.8702 10.0414V17.5473C63.8702 17.8787 63.8262 18.1514 63.7399 18.3688C63.6519 18.5846 63.5403 18.7572 63.4032 18.8849C63.2662 19.0126 63.1072 19.1023 62.9261 19.1524C62.7451 19.2042 62.5539 19.2283 62.3543 19.2283C62.1546 19.2283 61.9635 19.2024 61.7824 19.1524C61.6014 19.1023 61.439 19.0126 61.2952 18.8849C61.1514 18.7572 61.0397 18.5863 60.9585 18.3688C60.8773 18.1531 60.8367 17.8787 60.8367 17.5473V16.6499L60.8384 16.6481Z" fill="#818181"/>
<path d="M65.7234 18.9587C65.7234 18.7671 65.7454 18.5928 65.7894 18.434C65.8333 18.2752 65.9179 18.1354 66.0414 18.0146C66.1666 17.8938 66.3409 17.7989 66.5659 17.7281C66.7909 17.6591 67.0785 17.6229 67.4271 17.6229H80.439C80.7875 17.6229 81.0752 17.6574 81.3002 17.7281C81.5252 17.7989 81.6994 17.8938 81.8246 18.0146C81.9498 18.1354 82.0327 18.2752 82.0767 18.434C82.1207 18.5928 82.1427 18.7688 82.1427 18.9587C82.1427 19.1106 82.1207 19.2676 82.0767 19.4264C82.0327 19.5852 81.9481 19.725 81.8246 19.8458C81.6994 19.9666 81.5252 20.065 81.3002 20.1427C81.0752 20.2186 80.7875 20.2566 80.439 20.2566H75.4582V23.0836C75.4582 23.4149 75.4142 23.6876 75.328 23.9051C75.24 24.1208 75.1283 24.2934 74.9913 24.4211C74.8542 24.5488 74.6952 24.6369 74.5142 24.6886C74.3332 24.7387 74.142 24.7646 73.9423 24.7646C73.7427 24.7646 73.5515 24.7387 73.3705 24.6886C73.1895 24.6386 73.0271 24.5488 72.8833 24.4211C72.7394 24.2934 72.6278 24.1226 72.5466 23.9051C72.4654 23.6894 72.4248 23.4149 72.4248 23.0836V20.2566H67.4254C67.0752 20.2566 66.7892 20.2186 66.5642 20.1427C66.3392 20.0667 66.1649 19.9683 66.0397 19.8458C65.9146 19.725 65.83 19.5852 65.7877 19.4264C65.7437 19.2676 65.7217 19.1106 65.7217 18.9587H65.7234ZM79.1668 8.56885C79.5034 8.56885 79.7657 8.60336 79.9535 8.67413C80.1413 8.74489 80.2851 8.83981 80.3832 8.96062C80.483 9.08144 80.5456 9.23159 80.571 9.40936C80.5964 9.58712 80.6082 9.79078 80.6082 10.0203V11.1663C80.6082 11.4839 80.5964 11.8377 80.571 12.226C80.5456 12.6143 80.505 13.0027 80.4492 13.391C80.3933 13.7793 80.3155 14.1607 80.2157 14.537C80.1159 14.9132 79.9788 15.2463 79.8046 15.5397C79.7048 15.7175 79.5762 15.8573 79.4205 15.9591C79.2649 16.0609 79.1025 16.1317 78.9333 16.1697C78.7641 16.2076 78.5932 16.218 78.419 16.199C78.2447 16.18 78.0823 16.1455 77.9317 16.0937C77.6187 15.9919 77.3819 15.8141 77.2194 15.5587C77.057 15.305 77.0198 14.9788 77.1078 14.5853C77.2076 14.14 77.282 13.7707 77.3328 13.4773C77.3819 13.1839 77.4191 12.9371 77.4445 12.7317C77.4698 12.528 77.4851 12.3537 77.4918 12.207C77.4986 12.0603 77.502 11.8981 77.502 11.7203V11.2043H68.6841C68.3339 11.2043 68.048 11.1698 67.823 11.099C67.5979 11.03 67.4237 10.9333 67.2985 10.8125C67.1733 10.6917 67.0887 10.5519 67.0464 10.3914C67.0024 10.2326 66.9804 10.0566 66.9804 9.86672C66.9804 9.71311 67.0024 9.55778 67.0464 9.399C67.0904 9.24022 67.175 9.10042 67.2985 8.97961C67.4237 8.8588 67.5979 8.76042 67.823 8.68276C68.048 8.60509 68.3339 8.56885 68.6841 8.56885H79.1684H79.1668Z" fill="#818181"/>
<path d="M82.6631 23.2371C82.6631 23.0456 82.6851 22.8713 82.7291 22.7125C82.7731 22.5537 82.8576 22.4139 82.9812 22.2914C83.1063 22.1705 83.2806 22.0756 83.5056 22.0049C83.7306 21.9341 84.0166 21.8996 84.3668 21.8996H89.3662V18.8051C89.3662 18.1682 89.5184 17.7333 89.8247 17.4968C90.1309 17.2621 90.4828 17.143 90.8821 17.143C91.0817 17.143 91.2729 17.1689 91.4539 17.219C91.6349 17.2707 91.794 17.3588 91.931 17.4865C92.068 17.6142 92.1814 17.7851 92.2677 18.0025C92.3557 18.2183 92.398 18.4858 92.398 18.8051V21.8996H97.3787C97.7273 21.8996 98.0149 21.9341 98.2399 22.0049C98.4649 22.0739 98.6392 22.1705 98.7644 22.2914C98.8896 22.4122 98.9725 22.552 99.0164 22.7125C99.0604 22.8713 99.0824 23.0473 99.0824 23.2371C99.0824 23.3907 99.0604 23.5461 99.0164 23.7049C98.9725 23.8636 98.8879 24.0034 98.7644 24.1243C98.6392 24.2451 98.4649 24.3434 98.2399 24.4211C98.0149 24.4988 97.7273 24.535 97.3787 24.535H84.3668C84.0166 24.535 83.7306 24.497 83.5056 24.4211C83.2806 24.3452 83.1063 24.2468 82.9812 24.1243C82.856 24.0034 82.7714 23.8636 82.7291 23.7049C82.6851 23.5461 82.6631 23.389 82.6631 23.2371ZM89.3662 10.1342C89.3662 9.81664 89.4135 9.54912 89.5066 9.33166C89.5996 9.11592 89.7215 8.94334 89.872 8.81562C90.0209 8.6879 90.1935 8.59988 90.3863 8.54811C90.5792 8.49806 90.7772 8.47217 90.9768 8.47217C91.1764 8.47217 91.3727 8.49806 91.5673 8.54811C91.7601 8.59988 91.9327 8.6879 92.0816 8.81562C92.2322 8.94334 92.3523 9.1142 92.447 9.33166C92.5401 9.54912 92.5874 9.81491 92.5874 10.1342V10.6882C92.5874 11.1715 92.7092 11.6461 92.9529 12.1103C93.1965 12.5746 93.5247 13.0078 93.9358 13.4099C94.3469 13.8103 94.8156 14.1676 95.3401 14.48C95.8645 14.7924 96.4076 15.0305 96.9693 15.1962C97.443 15.336 97.8017 15.5587 98.0453 15.8641C98.2889 16.1696 98.36 16.558 98.2602 17.0291C98.1485 17.5262 97.8609 17.8575 97.399 18.0215C97.262 18.0733 97.1182 18.1044 96.9676 18.1164C96.8187 18.1302 96.6682 18.1164 96.5176 18.0785C95.9559 17.9507 95.4128 17.7609 94.8883 17.5055C94.3639 17.2518 93.8614 16.9618 93.3809 16.6356C92.9004 16.3112 92.4538 15.9539 92.0427 15.5656C91.6315 15.1772 91.2627 14.7803 90.9379 14.3713C90.6012 14.7665 90.2256 15.1514 89.8145 15.5276C89.4034 15.9038 88.972 16.2507 88.5219 16.5683C88.0719 16.8876 87.61 17.1637 87.1363 17.3985C86.6626 17.6349 86.194 17.8161 85.7321 17.9421C85.5578 17.9922 85.3666 18.0284 85.1602 18.0474C84.9538 18.0664 84.7508 18.056 84.5512 18.0181C84.3397 17.968 84.1401 17.8714 83.9523 17.7316C83.7645 17.5918 83.6274 17.376 83.5412 17.0826C83.4041 16.6235 83.4413 16.2335 83.6528 15.9073C83.8643 15.5828 84.2027 15.3308 84.6645 15.1531C85.2008 14.9494 85.7507 14.6888 86.3124 14.3695C86.8741 14.052 87.3799 13.6982 87.8283 13.3098C88.2783 12.9215 88.6454 12.5021 88.933 12.0499C89.2207 11.5978 89.3628 11.13 89.3628 10.6468V10.1307L89.3662 10.1342Z" fill="#818181"/>
<path d="M95.3354 34H16.6647C7.47625 34 0 26.3733 0 17C0 7.6267 7.47625 0 16.6647 0H95.3354C104.524 0 112 7.6267 112 17C112 26.3733 104.524 34 95.3354 34ZM16.6647 3.1066C9.15456 3.1066 3.04532 9.33878 3.04532 17C3.04532 24.6612 9.15456 30.8934 16.6647 30.8934H95.3354C102.845 30.8934 108.955 24.6612 108.955 17C108.955 9.33878 102.845 3.1066 95.3354 3.1066H16.6647Z" fill="#818181"/>
</svg>
