<svg width="112" height="34" viewBox="0 0 112 34" fill="none" xmlns="http://www.w3.org/2000/svg">
<g clip-path="url(#clip0_104_119)">
<path d="M12.8701 17.7184C12.8701 17.5269 12.8921 17.3525 12.9361 17.1938C12.9801 17.035 13.0647 16.8986 13.1882 16.783C13.3134 16.6691 13.4876 16.5794 13.7127 16.5155C13.9377 16.4516 14.2236 16.4206 14.5738 16.4206H15.0424V14.0337C15.0424 13.3968 15.1947 12.9619 15.5009 12.7254C15.8072 12.4907 16.1591 12.3716 16.5583 12.3716C16.758 12.3716 16.9492 12.3975 17.1302 12.4476C17.3112 12.4976 17.4702 12.5874 17.6073 12.7151C17.7443 12.8428 17.856 13.0137 17.944 13.2311C18.0319 13.4469 18.0742 13.7144 18.0742 14.0337V16.4206H21.9502C22.2988 16.4206 22.5864 16.4516 22.8114 16.5155C23.0364 16.5794 23.2107 16.6691 23.3359 16.783C23.4611 16.8969 23.544 17.035 23.5879 17.1938C23.6319 17.3525 23.6539 17.5286 23.6539 17.7184C23.6539 17.8703 23.6319 18.0239 23.5879 18.1775C23.544 18.3311 23.4594 18.4675 23.3359 18.5883C23.2107 18.7091 23.0364 18.804 22.8114 18.8748C22.5864 18.9455 22.2988 18.9801 21.9502 18.9801H14.5738C14.2236 18.9801 13.9377 18.9455 13.7127 18.8748C13.4876 18.804 13.3134 18.7091 13.1882 18.5883C13.063 18.4675 12.9784 18.3311 12.9361 18.1775C12.8921 18.0256 12.8701 17.872 12.8701 17.7184ZM21.2024 8.60747C21.5391 8.60747 21.8014 8.64199 21.9892 8.71275C22.1769 8.78351 22.3191 8.87844 22.4189 8.99925C22.5187 9.12006 22.5813 9.27021 22.6067 9.44798C22.632 9.62575 22.6439 9.8294 22.6439 10.0589V11.3775C22.6439 11.5294 22.6371 11.7244 22.6253 11.9609C22.6134 12.1973 22.5965 12.4441 22.5779 12.7065C22.5593 12.9671 22.5339 13.2311 22.5035 13.4986C22.4713 13.7662 22.4375 14.0147 22.4003 14.2442C22.3258 14.6515 22.1566 14.9639 21.8944 15.1797C21.6322 15.3954 21.2329 15.4731 20.6966 15.4092C20.1975 15.3453 19.854 15.1952 19.6662 14.9605C19.4785 14.7257 19.3972 14.4099 19.4226 14.0147C19.4345 13.7731 19.4565 13.4935 19.4886 13.1742C19.5191 12.8566 19.536 12.5701 19.536 12.3147V11.2446H14.8546C14.5044 11.2446 14.2185 11.2101 13.9935 11.1394C13.7685 11.0703 13.5942 10.9737 13.469 10.8529C13.3438 10.732 13.2592 10.5922 13.2169 10.4335C13.173 10.2747 13.151 10.0986 13.151 9.90879C13.151 9.75519 13.173 9.59986 13.2169 9.44108C13.2609 9.2823 13.3455 9.1425 13.469 9.02169C13.5942 8.90087 13.7685 8.8025 13.9935 8.72656C14.2185 8.65062 14.5044 8.61265 14.8546 8.61265H21.2024V8.60747ZM17.2892 22.4163H26.6688C27.0173 22.4163 27.3049 22.4508 27.5299 22.5216C27.755 22.5923 27.9292 22.6873 28.0544 22.8081C28.1796 22.9289 28.2625 23.0652 28.3065 23.2188C28.3505 23.3707 28.3725 23.5243 28.3725 23.6779C28.3725 23.8695 28.3505 24.0438 28.3065 24.2026C28.2625 24.3614 28.1779 24.4977 28.0544 24.6134C27.9292 24.7273 27.755 24.817 27.5299 24.8809C27.3049 24.9447 27.0173 24.9758 26.6688 24.9758H15.7716C15.4214 24.9758 15.1473 24.9413 14.9477 24.8705C14.7481 24.7998 14.5941 24.7048 14.4892 24.584C14.3826 24.4632 14.3166 24.3234 14.293 24.1646C14.2676 24.0058 14.2557 23.8298 14.2557 23.64V21.348C14.2557 21.0304 14.2963 20.7646 14.3775 20.5558C14.4588 20.3452 14.5704 20.1813 14.7142 20.0587C14.858 19.9379 15.0204 19.8551 15.2015 19.8102C15.3825 19.7653 15.572 19.7429 15.7733 19.7429C15.9746 19.7429 16.1641 19.7653 16.3452 19.8102C16.5262 19.8551 16.6852 19.9379 16.8223 20.0587C16.9593 20.1796 17.0727 20.3452 17.1589 20.5558C17.2469 20.7664 17.2892 21.0304 17.2892 21.348V22.418V22.4163ZM24.554 10.04C24.554 9.40311 24.7062 8.96818 25.0125 8.73174C25.3187 8.49702 25.6706 8.37793 26.0699 8.37793C26.2695 8.37793 26.4607 8.40382 26.6417 8.45387C26.8227 8.50565 26.9818 8.59367 27.1188 8.72138C27.2559 8.8491 27.3692 9.01996 27.4555 9.23742C27.5435 9.45488 27.5858 9.72067 27.5858 10.04V13.2104H28.54C28.8885 13.2104 29.1761 13.2518 29.4011 13.3347C29.6261 13.4175 29.8004 13.5228 29.9256 13.6505C30.0508 13.7782 30.1337 13.9215 30.1777 14.0803C30.2217 14.239 30.2437 14.3961 30.2437 14.548C30.2437 14.7396 30.2217 14.9173 30.1777 15.083C30.1337 15.2487 30.0491 15.3919 29.9256 15.5128C29.8004 15.6336 29.6261 15.7319 29.4011 15.8079C29.1761 15.8838 28.8885 15.9218 28.54 15.9218H27.5858V18.7488C27.5858 19.0802 27.5418 19.3529 27.4555 19.5703C27.3675 19.7861 27.2559 19.9586 27.1188 20.0864C26.9818 20.2141 26.8227 20.3021 26.6417 20.3539C26.4607 20.4056 26.2695 20.4298 26.0699 20.4298C25.8702 20.4298 25.6791 20.4039 25.498 20.3539C25.317 20.3038 25.1546 20.2141 25.0108 20.0864C24.867 19.9586 24.7553 19.7878 24.6741 19.5703C24.5929 19.3546 24.5523 19.0802 24.5523 18.7488V10.04H24.554Z" fill="white"/>
<path d="M30.7881 12.791C30.7881 11.2636 31.1248 10.159 31.7998 9.47732C32.4732 8.79559 33.5475 8.45559 35.0194 8.45559C36.4913 8.45559 37.5656 8.79559 38.239 9.47732C38.9123 10.159 39.2507 11.2636 39.2507 12.791C39.2507 13.5936 39.1661 14.2718 38.9986 14.8258C38.8294 15.3799 38.5739 15.8217 38.2305 16.1531C37.8871 16.4844 37.4472 16.7226 36.9109 16.8693C36.3746 17.016 35.7435 17.0885 35.0194 17.0885C33.5593 17.0885 32.4884 16.7519 31.8083 16.0754C31.1281 15.4006 30.7881 14.3064 30.7881 12.7893V12.791ZM42.115 21.272H32.7912C32.441 21.272 32.1551 21.2341 31.9301 21.1581C31.7051 21.0822 31.5308 20.9838 31.4056 20.8613C31.2804 20.7405 31.1958 20.6007 31.1535 20.4419C31.1095 20.2831 31.0875 20.1261 31.0875 19.9742C31.0875 19.7826 31.1095 19.6083 31.1535 19.4495C31.1975 19.2907 31.2821 19.1509 31.4056 19.0301C31.5308 18.9093 31.7051 18.8144 31.9301 18.7436C32.1551 18.6746 32.441 18.6383 32.7912 18.6383H43.6326C43.9811 18.6383 44.2568 18.6729 44.4565 18.7436C44.6561 18.8144 44.8084 18.9093 44.915 19.0301C45.0216 19.1509 45.0859 19.2907 45.1112 19.4495C45.1366 19.6083 45.1484 19.7843 45.1484 19.9742V23.3172C45.1484 23.6348 45.1045 23.9023 45.0182 24.1198C44.9302 24.3355 44.8185 24.5081 44.6815 24.6358C44.5445 24.7635 44.3854 24.8515 44.2044 24.9033C44.0234 24.9534 43.8322 24.9792 43.6326 24.9792C43.2333 24.9792 42.8797 24.8619 42.5752 24.6254C42.2689 24.389 42.1167 23.9541 42.1167 23.3172V21.2738L42.115 21.272ZM33.8402 12.791C33.8402 13.4279 33.9112 13.8835 34.055 14.1562C34.1988 14.4306 34.5203 14.567 35.0194 14.567C35.5185 14.567 35.8399 14.4306 35.9837 14.1562C36.1275 13.8818 36.1986 13.4279 36.1986 12.791C36.1986 12.1542 36.1259 11.6968 35.9837 11.4155C35.8399 11.1359 35.5185 10.9961 35.0194 10.9961C34.5203 10.9961 34.1988 11.1359 34.055 11.4155C33.9112 11.6951 33.8402 12.1542 33.8402 12.791ZM41.7411 10.04C41.7411 9.40311 41.8933 8.96818 42.1996 8.73174C42.5058 8.49702 42.8577 8.37793 43.257 8.37793C43.4566 8.37793 43.6461 8.40382 43.8288 8.45387C44.0098 8.50565 44.1689 8.59367 44.3059 8.72138C44.443 8.8491 44.5546 9.01996 44.6426 9.23742C44.7306 9.45488 44.7729 9.72067 44.7729 10.04V11.5674H46.1213C46.4698 11.5674 46.7574 11.6088 46.9824 11.6916C47.2074 11.7745 47.3817 11.8798 47.5069 12.0075C47.6321 12.1352 47.715 12.2784 47.759 12.4372C47.803 12.596 47.8249 12.7531 47.8249 12.9049C47.8249 13.0965 47.803 13.2743 47.759 13.44C47.715 13.6056 47.6304 13.7489 47.5069 13.8697C47.3817 13.9905 47.2074 14.0889 46.9824 14.1666C46.7574 14.2425 46.4698 14.2805 46.1213 14.2805H44.7729V16.0184C44.7729 16.3498 44.7289 16.6225 44.6426 16.84C44.5546 17.0557 44.443 17.2283 44.3059 17.356C44.1689 17.4837 44.0098 17.5717 43.8288 17.6235C43.6478 17.6753 43.4566 17.6995 43.257 17.6995C43.0573 17.6995 42.8662 17.6736 42.6851 17.6235C42.5041 17.5735 42.3417 17.4837 42.1979 17.356C42.0541 17.2283 41.9424 17.0574 41.8612 16.84C41.78 16.6242 41.7394 16.3498 41.7394 16.0184V10.04H41.7411Z" fill="white"/>
<path d="M48.5742 13.1717C48.5742 11.6443 48.9143 10.4759 49.5944 9.66642C50.2745 8.8587 51.3505 8.45312 52.8241 8.45312C54.2977 8.45312 55.3737 8.85698 56.0539 9.66642C56.734 10.4759 57.074 11.6426 57.074 13.1717C57.074 14.7889 56.7306 15.9763 56.0437 16.7339C55.3568 17.4916 54.2842 17.8696 52.8241 17.8696C51.3641 17.8696 50.2745 17.4692 49.5944 16.6666C48.9143 15.8641 48.5742 14.6991 48.5742 13.1717ZM52.7311 22.3396H62.7671C63.1156 22.3396 63.4032 22.3776 63.6282 22.4535C63.8533 22.5295 64.0275 22.6278 64.1527 22.7487C64.2779 22.8695 64.3608 23.0093 64.4048 23.168C64.4488 23.3268 64.4708 23.4839 64.4708 23.6358C64.4708 23.8273 64.4488 24.0016 64.4048 24.1604C64.3608 24.3192 64.2762 24.459 64.1527 24.5798C64.0275 24.7006 63.8533 24.7956 63.6282 24.8663C63.4032 24.9354 63.1156 24.9716 62.7671 24.9716H51.2152C50.865 24.9716 50.5909 24.9371 50.3913 24.8663C50.1916 24.7956 50.0394 24.7006 49.9328 24.5798C49.8262 24.459 49.7602 24.3192 49.7365 24.1604C49.7111 24.0016 49.6993 23.8256 49.6993 23.6358V20.4083C49.6993 19.7715 49.8516 19.3366 50.1578 19.1001C50.464 18.8654 50.8159 18.7463 51.2152 18.7463C51.4148 18.7463 51.6043 18.7722 51.787 18.8223C51.9681 18.874 52.1271 18.9621 52.2641 19.0898C52.4012 19.2175 52.5145 19.3883 52.6008 19.6058C52.6888 19.8215 52.7311 20.0891 52.7311 20.4083V22.3379V22.3396ZM51.6263 13.1717C51.6263 13.4893 51.6415 13.7827 51.6737 14.0502C51.7041 14.3177 51.7633 14.5472 51.8513 14.7371C51.9393 14.9287 52.0594 15.0771 52.2168 15.1858C52.3724 15.2945 52.5754 15.348 52.8258 15.348C53.0762 15.348 53.2775 15.2945 53.4349 15.1858C53.5905 15.0771 53.7123 14.9287 53.8003 14.7371C53.8883 14.5455 53.9475 14.3177 53.978 14.0502C54.0084 13.7827 54.0253 13.4893 54.0253 13.1717C54.0253 12.8541 54.0101 12.5607 53.978 12.2932C53.9458 12.0257 53.8866 11.7962 53.8003 11.6063C53.7123 11.4147 53.5905 11.2663 53.4349 11.1576C53.2792 11.0489 53.0762 10.9954 52.8258 10.9954C52.5754 10.9954 52.3741 11.0489 52.2168 11.1576C52.0611 11.2663 51.9393 11.4147 51.8513 11.6063C51.7633 11.7979 51.7041 12.0274 51.6737 12.2932C51.6415 12.5607 51.6263 12.8541 51.6263 13.1717ZM60.8384 16.6476H59.5272C59.177 16.6476 58.8911 16.6166 58.6661 16.5527C58.4411 16.4889 58.2668 16.3991 58.1416 16.2852C58.0164 16.1713 57.9318 16.0332 57.8895 15.8744C57.8455 15.7157 57.8235 15.5396 57.8235 15.3498C57.8235 15.1962 57.8455 15.0443 57.8895 14.8907C57.9335 14.7371 58.0181 14.6007 58.1416 14.4799C58.2668 14.3591 58.4411 14.2642 58.6661 14.1934C58.8911 14.1227 59.177 14.0881 59.5272 14.0881H60.8384V12.5038H59.5272C59.177 12.5038 58.8911 12.4727 58.6661 12.4089C58.4411 12.345 58.2668 12.2553 58.1416 12.1413C58.0164 12.0274 57.9318 11.8894 57.8895 11.7306C57.8455 11.5718 57.8235 11.3958 57.8235 11.2059C57.8235 11.0523 57.8455 10.9004 57.8895 10.7468C57.9335 10.5932 58.0181 10.4569 58.1416 10.3361C58.2668 10.2153 58.4411 10.1203 58.6661 10.0496C58.8911 9.9788 59.177 9.94429 59.5272 9.94429H60.8384C60.8502 9.6388 60.901 9.38683 60.989 9.19007C61.0769 8.99332 61.1886 8.83454 61.3256 8.712C61.4627 8.59119 61.6217 8.5049 61.8027 8.45485C61.9838 8.40479 62.1682 8.37891 62.3543 8.37891C62.5539 8.37891 62.7434 8.40479 62.9261 8.45485C63.1072 8.50662 63.2662 8.59464 63.4032 8.72236C63.5403 8.85007 63.6536 9.02094 63.7399 9.2384C63.8279 9.45586 63.8702 9.72165 63.8702 10.0409V17.5468C63.8702 17.8782 63.8262 18.1509 63.7399 18.3683C63.6519 18.5841 63.5403 18.7567 63.4032 18.8844C63.2662 19.0121 63.1072 19.1019 62.9261 19.1519C62.7451 19.2037 62.5539 19.2278 62.3543 19.2278C62.1546 19.2278 61.9635 19.202 61.7824 19.1519C61.6014 19.1019 61.439 19.0121 61.2952 18.8844C61.1514 18.7567 61.0397 18.5858 60.9585 18.3683C60.8773 18.1526 60.8367 17.8782 60.8367 17.5468V16.6494L60.8384 16.6476Z" fill="white"/>
<path d="M65.7234 18.9592C65.7234 18.7676 65.7454 18.5933 65.7894 18.4345C65.8333 18.2757 65.9179 18.1359 66.0414 18.0151C66.1666 17.8943 66.3409 17.7994 66.5659 17.7286C66.7909 17.6596 67.0785 17.6233 67.4271 17.6233H80.439C80.7875 17.6233 81.0752 17.6579 81.3002 17.7286C81.5252 17.7994 81.6994 17.8943 81.8246 18.0151C81.9498 18.1359 82.0327 18.2757 82.0767 18.4345C82.1207 18.5933 82.1427 18.7693 82.1427 18.9592C82.1427 19.1111 82.1207 19.2681 82.0767 19.4269C82.0327 19.5857 81.9481 19.7255 81.8246 19.8463C81.6994 19.9671 81.5252 20.0655 81.3002 20.1431C81.0752 20.2191 80.7875 20.2571 80.439 20.2571H75.4582V23.0841C75.4582 23.4154 75.4142 23.6881 75.328 23.9056C75.24 24.1213 75.1283 24.2939 74.9913 24.4216C74.8542 24.5493 74.6952 24.6374 74.5142 24.6891C74.3332 24.7392 74.142 24.7651 73.9423 24.7651C73.7427 24.7651 73.5515 24.7392 73.3705 24.6891C73.1895 24.6391 73.0271 24.5493 72.8833 24.4216C72.7394 24.2939 72.6278 24.123 72.5466 23.9056C72.4654 23.6898 72.4248 23.4154 72.4248 23.0841V20.2571H67.4254C67.0752 20.2571 66.7892 20.2191 66.5642 20.1431C66.3392 20.0672 66.1649 19.9688 66.0397 19.8463C65.9146 19.7255 65.83 19.5857 65.7877 19.4269C65.7437 19.2681 65.7217 19.1111 65.7217 18.9592H65.7234ZM79.1668 8.56934C79.5034 8.56934 79.7657 8.60385 79.9535 8.67461C80.1413 8.74538 80.2851 8.8403 80.3832 8.96111C80.483 9.08192 80.5456 9.23208 80.571 9.40984C80.5964 9.58761 80.6082 9.79126 80.6082 10.0208V11.1668C80.6082 11.4844 80.5964 11.8382 80.571 12.2265C80.5456 12.6148 80.505 13.0031 80.4492 13.3915C80.3933 13.7798 80.3155 14.1612 80.2157 14.5375C80.1159 14.9137 79.9788 15.2468 79.8046 15.5402C79.7048 15.718 79.5762 15.8578 79.4205 15.9596C79.2649 16.0614 79.1025 16.1322 78.9333 16.1701C78.7641 16.2081 78.5932 16.2185 78.419 16.1995C78.2447 16.1805 78.0823 16.146 77.9317 16.0942C77.6187 15.9924 77.3819 15.8146 77.2194 15.5592C77.057 15.3055 77.0198 14.9793 77.1078 14.5858C77.2076 14.1405 77.282 13.7712 77.3328 13.4778C77.3819 13.1844 77.4191 12.9376 77.4445 12.7322C77.4698 12.5285 77.4851 12.3542 77.4918 12.2075C77.4986 12.0608 77.502 11.8986 77.502 11.7208V11.2048H68.6841C68.3339 11.2048 68.048 11.1702 67.823 11.0995C67.5979 11.0305 67.4237 10.9338 67.2985 10.813C67.1733 10.6922 67.0887 10.5524 67.0464 10.3919C67.0024 10.2331 66.9804 10.0571 66.9804 9.8672C66.9804 9.7136 67.0024 9.55827 67.0464 9.39949C67.0904 9.24071 67.175 9.10091 67.2985 8.9801C67.4237 8.85928 67.5979 8.76091 67.823 8.68324C68.048 8.60558 68.3339 8.56934 68.6841 8.56934H79.1684H79.1668Z" fill="white"/>
<path d="M82.6631 23.2376C82.6631 23.0461 82.6851 22.8717 82.7291 22.713C82.7731 22.5542 82.8576 22.4144 82.9812 22.2918C83.1063 22.171 83.2806 22.0761 83.5056 22.0053C83.7306 21.9346 84.0166 21.9001 84.3668 21.9001H89.3662V18.8055C89.3662 18.1687 89.5184 17.7338 89.8247 17.4973C90.1309 17.2626 90.4828 17.1435 90.8821 17.1435C91.0817 17.1435 91.2729 17.1694 91.4539 17.2195C91.6349 17.2712 91.794 17.3593 91.931 17.487C92.068 17.6147 92.1814 17.7855 92.2677 18.003C92.3557 18.2187 92.398 18.4863 92.398 18.8055V21.9001H97.3787C97.7273 21.9001 98.0149 21.9346 98.2399 22.0053C98.4649 22.0744 98.6392 22.171 98.7644 22.2918C98.8896 22.4127 98.9725 22.5525 99.0164 22.713C99.0604 22.8717 99.0824 23.0478 99.0824 23.2376C99.0824 23.3912 99.0604 23.5466 99.0164 23.7053C98.9725 23.8641 98.8879 24.0039 98.7644 24.1247C98.6392 24.2456 98.4649 24.3439 98.2399 24.4216C98.0149 24.4993 97.7273 24.5355 97.3787 24.5355H84.3668C84.0166 24.5355 83.7306 24.4975 83.5056 24.4216C83.2806 24.3457 83.1063 24.2473 82.9812 24.1247C82.856 24.0039 82.7714 23.8641 82.7291 23.7053C82.6851 23.5466 82.6631 23.3895 82.6631 23.2376ZM89.3662 10.1347C89.3662 9.81712 89.4135 9.54961 89.5066 9.33215C89.5996 9.11641 89.7215 8.94382 89.872 8.81611C90.0209 8.68839 90.1935 8.60037 90.3863 8.5486C90.5792 8.49854 90.7772 8.47266 90.9768 8.47266C91.1764 8.47266 91.3727 8.49854 91.5673 8.5486C91.7601 8.60037 91.9327 8.68839 92.0816 8.81611C92.2322 8.94382 92.3523 9.11469 92.447 9.33215C92.5401 9.54961 92.5874 9.8154 92.5874 10.1347V10.6887C92.5874 11.1719 92.7092 11.6466 92.9529 12.1108C93.1965 12.5751 93.5247 13.0083 93.9358 13.4104C94.3469 13.8108 94.8156 14.1681 95.3401 14.4805C95.8645 14.7929 96.4076 15.031 96.9693 15.1967C97.443 15.3365 97.8017 15.5592 98.0453 15.8646C98.2889 16.1701 98.36 16.5584 98.2602 17.0296C98.1485 17.5267 97.8609 17.858 97.399 18.022C97.262 18.0738 97.1182 18.1048 96.9676 18.1169C96.8187 18.1307 96.6682 18.1169 96.5176 18.079C95.9559 17.9512 95.4128 17.7614 94.8883 17.506C94.3639 17.2523 93.8614 16.9623 93.3809 16.6361C92.9004 16.3116 92.4538 15.9544 92.0427 15.5661C91.6315 15.1777 91.2627 14.7808 90.9379 14.3717C90.6012 14.767 90.2256 15.1518 89.8145 15.5281C89.4034 15.9043 88.972 16.2512 88.5219 16.5688C88.0719 16.8881 87.61 17.1642 87.1363 17.399C86.6626 17.6354 86.194 17.8166 85.7321 17.9426C85.5578 17.9927 85.3666 18.0289 85.1602 18.0479C84.9538 18.0669 84.7508 18.0565 84.5512 18.0185C84.3397 17.9685 84.1401 17.8718 83.9523 17.732C83.7645 17.5922 83.6274 17.3765 83.5412 17.0831C83.4041 16.624 83.4413 16.234 83.6528 15.9078C83.8643 15.5833 84.2027 15.3313 84.6645 15.1536C85.2008 14.9499 85.7507 14.6893 86.3124 14.37C86.8741 14.0525 87.3799 13.6986 87.8283 13.3103C88.2783 12.922 88.6454 12.5026 88.933 12.0504C89.2207 11.5982 89.3628 11.1305 89.3628 10.6473V10.1312L89.3662 10.1347Z" fill="white"/>
<path d="M95.3354 34H16.6647C7.47625 34 0 26.3733 0 17C0 7.6267 7.47625 0 16.6647 0H95.3354C104.524 0 112 7.6267 112 17C112 26.3733 104.524 34 95.3354 34ZM16.6647 3.1066C9.15456 3.1066 3.04532 9.33878 3.04532 17C3.04532 24.6612 9.15456 30.8934 16.6647 30.8934H95.3354C102.845 30.8934 108.955 24.6612 108.955 17C108.955 9.33878 102.845 3.1066 95.3354 3.1066H16.6647Z" fill="white"/>
</g>
<defs>
<clipPath id="clip0_104_119">
<rect width="112" height="34" fill="white"/>
</clipPath>
</defs>
</svg>
